<svg width="32" height="32" xmlns="http://www.w3.org/2000/svg">
 <!-- Created with Method Draw - http://github.com/duopixel/Method-Draw/ -->

 <g>
  <title>background</title>
  <rect fill="none" id="canvas_background" height="34" width="34" y="-1" x="-1"/>
 </g>
 <g>
  <title>Layer 1</title>
  <metadata id="svg_7">image/svg+xml</metadata>

  <g stroke="null" id="svg_9">
   <path stroke="null" fill="#ff514d" id="svg_6" d="m14.062175,28.281244c0.045345,-1.378456 0.082614,-2.929852 0.082818,-3.447547l0.000396,-0.941264l1.747803,0.656112c0.961292,0.360863 1.767048,0.675065 1.790569,0.698227c0.045825,0.045125 -3.350258,5.187964 -3.571741,5.408845c-0.088412,0.088174 -0.104931,-0.699082 -0.049822,-2.374374l-0.000022,0zm5.935468,-5.19035c-3.201951,-0.990474 -5.843441,-1.839787 -5.869979,-1.887364c-0.026539,-0.047577 2.465253,-3.094062 5.537316,-6.769968c3.072062,-3.675905 5.563388,-6.705645 5.536278,-6.732754c-0.027109,-0.02711 -3.413394,2.793249 -7.525078,6.267464l-7.475789,6.316754l-4.96458,-1.762764c-2.730519,-0.96952 -4.987332,-1.785516 -5.015141,-1.813325c-0.027809,-0.027808 7.077465,-3.631558 15.789497,-8.008332c11.411821,-5.733102 15.820137,-7.88831 15.768803,-7.709304c-0.039189,0.136657 -1.32486,5.472089 -2.857044,11.856516c-3.098015,12.909048 -2.889485,12.074457 -3.012514,12.056835c-0.049523,-0.007097 -2.70982,-0.823285 -5.911769,-1.813758z"/>
  </g>
 </g>
</svg>